<svg xmlns="http://www.w3.org/2000/svg" xmlns:xlink="http://www.w3.org/1999/xlink" width="300" zoomAndPan="magnify" viewBox="0 0 224.87999 74.999997" height="100" preserveAspectRatio="xMidYMid meet" version="1.0"><defs><g/><clipPath id="0fff189113"><path d="M 27 31 L 112 31 L 112 47 L 27 47 Z M 27 31 " clip-rule="nonzero"/></clipPath><clipPath id="6b24aab315"><path d="M 26.757812 33.496094 L 111.40625 30.367188 L 112.289062 54.339844 L 27.644531 57.46875 Z M 26.757812 33.496094 " clip-rule="nonzero"/></clipPath><clipPath id="291868f612"><path d="M 26.757812 33.496094 L 111.40625 30.367188 L 112.289062 54.339844 L 27.644531 57.46875 Z M 26.757812 33.496094 " clip-rule="nonzero"/></clipPath><clipPath id="79a3f3b49f"><path d="M 26.757812 33.496094 L 111.40625 30.367188 L 112.289062 54.339844 L 27.644531 57.46875 Z M 26.757812 33.496094 " clip-rule="nonzero"/></clipPath></defs><g clip-path="url(#0fff189113)"><g clip-path="url(#6b24aab315)"><g clip-path="url(#291868f612)"><g clip-path="url(#79a3f3b49f)"><path fill="#000000" d="M 28.773438 34.371094 C 52.390625 54.957031 97.238281 42.84375 110.753906 31.542969 L 111.492188 32.40625 C 98.496094 43.273438 52.75 56.375 28.007812 35.832031 C 26.792969 34.824219 27.960938 33.664062 28.773438 34.371094 Z M 28.773438 34.371094 " fill-opacity="1" fill-rule="nonzero"/></g></g></g></g><g fill="#000000" fill-opacity="1"><g transform="translate(109.531325, 41.126892)"><g><path d="M 13.136719 -32.265625 C 12.855469 -32.46875 12.515625 -32.511719 12.191406 -32.410156 C 10.644531 -31.753906 8.460938 -23.773438 6.824219 -10.804688 C 6.769531 -10.578125 6.671875 -10.382812 6.582031 -10.152344 C 6.269531 -11.578125 5.273438 -11.902344 4.929688 -11.984375 C 3.296875 -12.328125 0.90625 -10.667969 -0.515625 -6.816406 C -1.605469 -3.925781 -1.550781 -0.277344 0.195312 0.542969 C 1.050781 0.953125 2.453125 0.757812 4.230469 -2.378906 C 5.011719 -3.714844 5.683594 -5.003906 6.320312 -6.25 C 6.097656 -4.105469 5.878906 -1.851562 5.710938 0.511719 C 5.367188 4.71875 5.148438 8.242188 5.070312 10.785156 C 4.902344 15.757812 5.257812 16.398438 6.015625 16.558594 C 6.09375 16.589844 6.203125 16.578125 6.277344 16.570312 C 6.945312 16.515625 7.316406 15.625 7.488281 15.050781 C 7.644531 14.703125 7.457031 14.269531 7.074219 14.152344 C 6.882812 14.058594 6.660156 14.078125 6.480469 14.167969 C 6.417969 12.570312 6.472656 8.910156 7.140625 0.652344 C 7.457031 -3.476562 7.84375 -7.164062 8.238281 -10.40625 C 10.558594 -15.902344 11.582031 -20.464844 12.425781 -24.078125 C 12.535156 -24.535156 12.648438 -24.953125 12.726562 -25.335938 C 14.179688 -31.386719 13.378906 -32.027344 13.136719 -32.265625 Z M 2.976562 -3.089844 C 1.746094 -0.933594 0.984375 -0.679688 0.792969 -0.738281 C 0.210938 -1.023438 -0.195312 -3.5625 0.832031 -6.335938 C 1.859375 -9.109375 3.453125 -10.515625 4.378906 -10.59375 C 4.492188 -10.605469 4.566406 -10.609375 4.640625 -10.578125 C 5.246094 -10.484375 5.230469 -9.398438 5.21875 -9.101562 C 5.210938 -8.765625 5.421875 -8.449219 5.765625 -8.363281 C 4.976562 -6.695312 4.046875 -4.9375 2.976562 -3.089844 Z M 11.355469 -25.664062 C 11.242188 -25.28125 11.128906 -24.859375 11.054688 -24.40625 C 10.5625 -22.351562 10.015625 -20.03125 9.238281 -17.390625 C 10.261719 -23.667969 11.335938 -27.636719 12.058594 -29.640625 C 11.984375 -28.738281 11.761719 -27.449219 11.355469 -25.664062 Z M 11.355469 -25.664062 "/></g></g></g><g fill="#000000" fill-opacity="1"><g transform="translate(121.115404, 40.126823)"><g><path d="M 17.394531 -9.703125 C 17.144531 -10.019531 16.695312 -10.054688 16.378906 -9.804688 C 13.375 -7.457031 10.316406 -4.878906 7.457031 -1.726562 C 7.664062 -4.503906 7.855469 -7.464844 8 -10.570312 C 8.042969 -10.910156 7.792969 -11.226562 7.449219 -11.308594 C 7.144531 -11.390625 6.789062 -11.210938 6.664062 -10.902344 C 6.035156 -9.582031 4.628906 -6.851562 3.335938 -4.984375 C 2.871094 -4.3125 2.382812 -3.933594 2.105469 -4.097656 C 1.445312 -4.414062 0.78125 -6.929688 1.921875 -10.570312 C 2.039062 -10.953125 1.816406 -11.34375 1.472656 -11.460938 C 1.089844 -11.578125 0.699219 -11.359375 0.582031 -10.976562 C -0.617188 -7.144531 -0.238281 -3.632812 1.507812 -2.816406 C 1.941406 -2.554688 3.160156 -2.25 4.488281 -4.152344 C 5.1875 -5.144531 5.835938 -6.246094 6.417969 -7.300781 C 6.265625 -4.71875 6.109375 -2.242188 5.902344 0.125 C 3.066406 3.574219 0.476562 7.675781 -1.617188 12.78125 C -5.136719 21.25 -5.140625 30.308594 -2.804688 32.71875 C -2.355469 33.199219 -1.8125 33.414062 -1.257812 33.367188 C -1.074219 33.351562 -0.929688 33.300781 -0.746094 33.25 C 1.597656 32.335938 3.285156 26.824219 4.316406 22.335938 C 5.585938 16.742188 6.5625 9.5 7.292969 0.675781 C 10.4375 -3.0625 13.871094 -6.042969 17.257812 -8.6875 C 17.574219 -8.9375 17.644531 -9.390625 17.394531 -9.703125 Z M 2.90625 22.007812 C 0.96875 30.675781 -0.875 31.769531 -1.234375 31.910156 C -1.378906 31.960938 -1.527344 31.972656 -1.773438 31.734375 C -3.246094 30.21875 -4.035156 22.347656 -0.304688 13.300781 C 1.425781 9.160156 3.4375 5.707031 5.679688 2.714844 C 5.007812 10.492188 4.074219 16.949219 2.90625 22.007812 Z M 2.90625 22.007812 "/></g></g></g><g fill="#000000" fill-opacity="1"><g transform="translate(137.510764, 38.711389)"><g><path d="M 7.886719 -35.617188 C 7.597656 -35.929688 7.214844 -36.042969 6.847656 -35.976562 C 4.773438 -35.421875 3.195312 -27.34375 2.773438 -24.886719 C 1.53125 -17.65625 0.0664062 -7.425781 -1.042969 1.730469 C -1.566406 6.0625 -1.957031 9.714844 -2.179688 12.34375 C -2.542969 16.773438 -2.382812 17.320312 -1.664062 17.445312 C -1.585938 17.476562 -1.511719 17.46875 -1.4375 17.460938 C -0.773438 17.40625 -0.515625 16.488281 -0.265625 15.496094 C -0.1875 15.117188 -0.40625 14.726562 -0.785156 14.648438 C -0.828125 14.613281 -0.863281 14.617188 -0.902344 14.621094 C -0.582031 9.222656 1.261719 -6.558594 3.394531 -19.832031 C 3.394531 -19.867188 3.425781 -19.90625 3.460938 -19.949219 C 7.613281 -27.988281 8.976562 -34.21875 7.886719 -35.617188 Z M 4.222656 -24.9375 C 5.179688 -30.277344 6.21875 -32.902344 6.796875 -33.996094 C 6.765625 -32.613281 6.207031 -29.582031 4.222656 -24.9375 Z M 4.222656 -24.9375 "/></g></g></g><g fill="#000000" fill-opacity="1"><g transform="translate(143.136259, 38.225732)"><g><path d="M 14.761719 -9.550781 C 14.414062 -9.671875 13.984375 -9.484375 13.863281 -9.140625 C 11.546875 -3.160156 9.59375 -1.164062 8.578125 -1.261719 C 8.164062 -1.300781 6.765625 -1.964844 5.875 -8.410156 C 5.847656 -8.707031 5.601562 -8.949219 5.339844 -9 C 5.035156 -9.046875 4.707031 -8.945312 4.582031 -8.671875 C 4.382812 -8.394531 4.1875 -8.078125 3.992188 -7.726562 C 3.175781 -6.390625 2.101562 -4.582031 0.757812 -2.863281 C 0.558594 -2.582031 0.386719 -2.417969 0.28125 -2.335938 C -0.0859375 -3.609375 0.851562 -8.6875 2.902344 -10.429688 C 3.492188 -10.929688 4.316406 -11.335938 5.578125 -10.101562 C 5.863281 -9.828125 6.308594 -9.828125 6.585938 -10.113281 C 6.859375 -10.359375 6.855469 -10.84375 6.609375 -11.121094 C 5.0625 -12.628906 3.734375 -12.476562 2.871094 -12.105469 C 0.105469 -10.859375 -1.34375 -5.214844 -1.203125 -2.691406 C -1.148438 -1.652344 -0.796875 -1.011719 -0.183594 -0.839844 C 0.773438 -0.550781 1.613281 -1.628906 1.878906 -1.988281 C 3.019531 -3.46875 4.039062 -5.046875 4.753906 -6.265625 C 5.523438 -2.082031 6.707031 -0.0585938 8.402344 0.167969 C 8.550781 0.15625 8.703125 0.179688 8.851562 0.167969 C 11.367188 -0.0507812 13.6875 -4.6875 15.175781 -8.617188 C 15.328125 -9.003906 15.148438 -9.398438 14.761719 -9.550781 Z M 14.761719 -9.550781 "/></g></g></g><g fill="#000000" fill-opacity="1"><g transform="translate(156.903921, 37.037151)"><g><path d="M 14.164062 -9.539062 C 13.816406 -9.695312 13.382812 -9.542969 13.230469 -9.160156 C 12.472656 -7.5625 10.496094 -3.253906 9.148438 -3.289062 C 8.886719 -3.300781 8.113281 -3.609375 7.152344 -6.136719 C 6.476562 -7.90625 5.625 -9.546875 4.25 -9.503906 C 3.246094 -9.488281 2.203125 -8.617188 0.773438 -5.285156 C 1.082031 -6.917969 1.425781 -8.550781 1.683594 -9.875 C 1.789062 -10.371094 1.863281 -10.789062 1.941406 -11.203125 C 2.019531 -11.582031 1.761719 -11.972656 1.382812 -12.050781 C 1.003906 -12.128906 0.617188 -11.871094 0.539062 -11.457031 C 0.460938 -11.078125 0.386719 -10.621094 0.277344 -10.164062 C -0.398438 -6.789062 -1.410156 -1.667969 -1.519531 1.398438 C -1.527344 1.734375 -1.277344 2.050781 -0.9375 2.09375 C -0.859375 2.125 -0.824219 2.121094 -0.75 2.117188 C -0.453125 2.089844 -0.210938 1.882812 -0.121094 1.613281 C 2.609375 -7.347656 3.964844 -8.058594 4.296875 -8.089844 C 4.371094 -8.09375 4.902344 -7.992188 5.816406 -5.609375 C 6.777344 -3.121094 7.851562 -1.910156 9.121094 -1.867188 C 11.03125 -1.808594 12.53125 -4.289062 14.511719 -8.5625 C 14.699219 -8.949219 14.519531 -9.34375 14.164062 -9.539062 Z M 14.164062 -9.539062 "/></g></g></g><g fill="#000000" fill-opacity="1"><g transform="translate(170.11643, 35.896497)"><g><path d="M 3.175781 -20.667969 C 2.859375 -20.867188 2.421875 -20.753906 2.1875 -20.433594 C 1.996094 -20.082031 2.105469 -19.644531 2.421875 -19.449219 C 2.539062 -19.382812 2.582031 -19.3125 2.597656 -19.164062 C 2.695312 -18.429688 1.84375 -17.085938 0.734375 -16.097656 C 0.457031 -15.847656 0.421875 -15.398438 0.671875 -15.121094 C 0.839844 -14.910156 1.066406 -14.855469 1.289062 -14.875 C 1.4375 -14.890625 1.582031 -14.9375 1.683594 -15.058594 C 2.894531 -16.132812 4.15625 -17.921875 4.039062 -19.289062 C 3.988281 -19.882812 3.6875 -20.339844 3.175781 -20.667969 Z M 3.175781 -20.667969 "/></g></g></g><g fill="#000000" fill-opacity="1"><g transform="translate(177.629429, 35.24789)"><g><path d="M 15.738281 -9.898438 C 15.417969 -10.128906 14.976562 -10.054688 14.746094 -9.738281 C 12.113281 -6.117188 7.984375 -0.355469 7.328125 0.671875 C 7.128906 0.949219 6.933594 1.265625 6.734375 1.582031 C 6.375 0.867188 5.945312 0.195312 5.398438 -0.503906 C 3.386719 -3.089844 1.570312 -5.542969 1.488281 -7.363281 C 1.4375 -8.8125 2.070312 -10.132812 3.226562 -10.980469 C 4.175781 -11.65625 5.277344 -11.863281 6.164062 -11.53125 C 6.507812 -11.410156 6.941406 -11.597656 7.054688 -11.980469 C 7.214844 -12.332031 7.027344 -12.761719 6.644531 -12.878906 C 5.335938 -13.363281 3.71875 -13.074219 2.382812 -12.136719 C 0.839844 -10.996094 0.0234375 -9.25 0.078125 -7.316406 C 0.160156 -5.046875 2.023438 -2.484375 4.28125 0.375 C 4.996094 1.285156 5.480469 2.175781 5.816406 3.039062 C 3.269531 7.210938 0.59375 12.515625 2.320312 13.929688 C 2.601562 14.167969 2.945312 14.25 3.277344 14.222656 C 3.871094 14.171875 4.511719 13.816406 5.167969 13.199219 C 7.019531 11.363281 8.769531 7.410156 7.398438 3.203125 C 7.761719 2.648438 8.121094 2.058594 8.515625 1.464844 C 9.175781 0.476562 13.300781 -5.285156 15.898438 -8.902344 C 16.132812 -9.222656 16.054688 -9.664062 15.738281 -9.898438 Z M 5.378906 10.496094 C 4.507812 12.0625 3.5625 12.742188 3.230469 12.808594 C 3.039062 12.304688 3.335938 10.113281 6.355469 4.933594 C 6.730469 7.585938 5.796875 9.714844 5.378906 10.496094 Z M 5.378906 10.496094 "/></g></g></g><g fill="#1f2122" fill-opacity="1"><g transform="translate(30.304194, 31.519153)"><g><path d="M 5.28125 0.59375 C 5 1.144531 4.578125 1.472656 4.015625 1.578125 C 3.460938 1.691406 2.835938 1.566406 2.140625 1.203125 C 1.390625 0.816406 0.859375 0.425781 0.546875 0.03125 L 0.9375 -0.734375 C 1.144531 -0.484375 1.390625 -0.242188 1.671875 -0.015625 C 1.960938 0.210938 2.242188 0.398438 2.515625 0.546875 C 2.992188 0.785156 3.394531 0.875 3.71875 0.8125 C 4.050781 0.75 4.296875 0.5625 4.453125 0.25 C 4.566406 0.03125 4.613281 -0.160156 4.59375 -0.328125 C 4.582031 -0.503906 4.503906 -0.703125 4.359375 -0.921875 C 4.210938 -1.148438 3.976562 -1.441406 3.65625 -1.796875 C 3.175781 -2.304688 2.882812 -2.769531 2.78125 -3.1875 C 2.6875 -3.601562 2.753906 -4.046875 2.984375 -4.515625 C 3.242188 -5.003906 3.628906 -5.296875 4.140625 -5.390625 C 4.660156 -5.484375 5.222656 -5.375 5.828125 -5.0625 C 6.441406 -4.75 6.957031 -4.34375 7.375 -3.84375 L 6.78125 -3.265625 C 6.351562 -3.773438 5.90625 -4.148438 5.4375 -4.390625 C 5.0625 -4.578125 4.726562 -4.644531 4.4375 -4.59375 C 4.144531 -4.539062 3.925781 -4.367188 3.78125 -4.078125 C 3.675781 -3.867188 3.625 -3.675781 3.625 -3.5 C 3.632812 -3.320312 3.703125 -3.128906 3.828125 -2.921875 C 3.960938 -2.710938 4.1875 -2.441406 4.5 -2.109375 C 4.882812 -1.691406 5.148438 -1.34375 5.296875 -1.0625 C 5.441406 -0.78125 5.515625 -0.503906 5.515625 -0.234375 C 5.515625 0.0234375 5.4375 0.300781 5.28125 0.59375 Z M 5.28125 0.59375 "/></g></g></g><g fill="#1f2122" fill-opacity="1"><g transform="translate(37.469288, 35.101237)"><g><path d="M 5.96875 2.234375 L 5.140625 1.921875 L 6.296875 -1.171875 L 2.890625 -2.4375 L 1.734375 0.65625 L 0.90625 0.34375 L 3.390625 -6.28125 L 4.21875 -5.96875 L 3.171875 -3.15625 L 6.578125 -1.890625 L 7.625 -4.703125 L 8.453125 -4.390625 Z M 5.96875 2.234375 "/></g></g></g><g fill="#1f2122" fill-opacity="1"><g transform="translate(46.781705, 38.343718)"><g><path d="M 2.859375 0.75 L 0.375 0.09375 L 0.5 -0.40625 L 1.359375 -0.375 L 2.796875 -5.84375 L 2.03125 -6.25 L 2.171875 -6.75 L 4.65625 -6.09375 L 4.515625 -5.59375 L 3.671875 -5.625 L 2.234375 -0.15625 L 2.984375 0.25 Z M 2.859375 0.75 "/></g></g></g><g fill="#1f2122" fill-opacity="1"><g transform="translate(52.484275, 39.811993)"><g><path d="M 6.484375 1 L 5.46875 0.84375 L 2.609375 -5.546875 L 2.578125 -5.546875 L 2.546875 -5.15625 C 2.492188 -4.570312 2.429688 -4.066406 2.359375 -3.640625 L 1.765625 0.265625 L 0.953125 0.140625 L 2.03125 -6.859375 L 3.0625 -6.703125 L 3.1875 -6.328125 L 4.953125 -2.421875 L 5.890625 -0.328125 L 5.921875 -0.328125 C 5.929688 -0.398438 5.960938 -0.671875 6.015625 -1.140625 C 6.066406 -1.617188 6.109375 -1.960938 6.140625 -2.171875 L 6.75 -6.125 L 7.5625 -6 Z M 6.484375 1 "/></g></g></g><g fill="#1f2122" fill-opacity="1"><g transform="translate(62.500025, 41.134824)"><g><path d="M 2.9375 -3.5 L 4.875 -6.921875 L 5.84375 -6.890625 L 3.34375 -2.640625 L 3.25 0.109375 L 2.359375 0.078125 L 2.453125 -2.625 L 0.234375 -7.078125 L 1.203125 -7.046875 Z M 2.9375 -3.5 "/></g></g></g><g fill="#1f2122" fill-opacity="1"><g transform="translate(70.567584, 41.231244)"><g/></g></g><g fill="#1f2122" fill-opacity="1"><g transform="translate(75.616844, 40.939137)"><g><path d="M 5.328125 -0.765625 L 4.1875 -2.8125 L 1.40625 -2.421875 L 0.890625 -0.125 L 0 0 L 1.71875 -7.40625 L 2.515625 -7.515625 L 6.265625 -0.90625 Z M 3.8125 -3.5625 L 2.71875 -5.578125 L 2.25 -6.578125 C 2.195312 -6.160156 2.140625 -5.796875 2.078125 -5.484375 L 1.609375 -3.25 Z M 3.8125 -3.5625 "/></g></g></g><g fill="#1f2122" fill-opacity="1"><g transform="translate(84.394311, 39.52056)"><g><path d="M 4.046875 -6.21875 C 4.234375 -5.519531 4.132812 -4.921875 3.75 -4.421875 C 3.375 -3.921875 2.75 -3.554688 1.875 -3.328125 L 1.09375 -3.125 L 1.796875 -0.46875 L 0.9375 -0.25 L -0.859375 -7.09375 L 0.9375 -7.5625 C 2.65625 -8.007812 3.691406 -7.5625 4.046875 -6.21875 Z M 0.90625 -3.875 L 1.59375 -4.0625 C 2.269531 -4.238281 2.726562 -4.472656 2.96875 -4.765625 C 3.21875 -5.066406 3.28125 -5.460938 3.15625 -5.953125 C 3.03125 -6.390625 2.800781 -6.679688 2.46875 -6.828125 C 2.132812 -6.972656 1.664062 -6.96875 1.0625 -6.8125 L 0.203125 -6.578125 Z M 0.90625 -3.875 "/></g></g></g><g fill="#1f2122" fill-opacity="1"><g transform="translate(92.623064, 37.216235)"><g><path d="M 3.328125 -6.625 C 3.585938 -5.945312 3.554688 -5.335938 3.234375 -4.796875 C 2.921875 -4.265625 2.347656 -3.835938 1.515625 -3.515625 L 0.75 -3.234375 L 1.734375 -0.671875 L 0.90625 -0.34375 L -1.640625 -6.953125 L 0.09375 -7.625 C 1.75 -8.257812 2.828125 -7.925781 3.328125 -6.625 Z M 0.46875 -3.953125 L 1.125 -4.203125 C 1.78125 -4.453125 2.210938 -4.738281 2.421875 -5.0625 C 2.628906 -5.394531 2.644531 -5.796875 2.46875 -6.265625 C 2.300781 -6.691406 2.039062 -6.957031 1.6875 -7.0625 C 1.34375 -7.164062 0.878906 -7.101562 0.296875 -6.875 L -0.53125 -6.5625 Z M 0.46875 -3.953125 "/></g></g></g><g fill="#1f2122" fill-opacity="1"><g transform="translate(100.528859, 34.009174)"><g><path d="M 3.5625 -3.96875 C 3.84375 -3.414062 3.863281 -2.878906 3.625 -2.359375 C 3.394531 -1.847656 2.929688 -1.410156 2.234375 -1.046875 C 1.484375 -0.660156 0.847656 -0.457031 0.328125 -0.4375 L -0.0625 -1.203125 C 0.269531 -1.222656 0.609375 -1.28125 0.953125 -1.375 C 1.304688 -1.46875 1.617188 -1.585938 1.890625 -1.734375 C 2.367188 -1.972656 2.675781 -2.242188 2.8125 -2.546875 C 2.957031 -2.847656 2.953125 -3.15625 2.796875 -3.46875 C 2.679688 -3.6875 2.546875 -3.835938 2.390625 -3.921875 C 2.242188 -4.015625 2.039062 -4.066406 1.78125 -4.078125 C 1.519531 -4.097656 1.144531 -4.078125 0.65625 -4.015625 C -0.03125 -3.921875 -0.570312 -3.953125 -0.96875 -4.109375 C -1.375 -4.265625 -1.691406 -4.578125 -1.921875 -5.046875 C -2.179688 -5.535156 -2.195312 -6.019531 -1.96875 -6.5 C -1.75 -6.976562 -1.335938 -7.375 -0.734375 -7.6875 C -0.117188 -8 0.507812 -8.175781 1.15625 -8.21875 L 1.28125 -7.421875 C 0.625 -7.367188 0.0625 -7.222656 -0.40625 -6.984375 C -0.78125 -6.796875 -1.03125 -6.566406 -1.15625 -6.296875 C -1.28125 -6.023438 -1.269531 -5.742188 -1.125 -5.453125 C -1.019531 -5.242188 -0.890625 -5.09375 -0.734375 -5 C -0.585938 -4.90625 -0.390625 -4.847656 -0.140625 -4.828125 C 0.0976562 -4.804688 0.445312 -4.828125 0.90625 -4.890625 C 1.457031 -4.953125 1.890625 -4.960938 2.203125 -4.921875 C 2.515625 -4.878906 2.78125 -4.78125 3 -4.625 C 3.21875 -4.476562 3.40625 -4.257812 3.5625 -3.96875 Z M 3.5625 -3.96875 "/></g></g></g></svg>